<svg width="146" height="173" viewBox="0 0 146 173" fill="none" xmlns="http://www.w3.org/2000/svg">
<path fill-rule="evenodd" clip-rule="evenodd" d="M134.791 47.6392C148.876 50.525 148.678 71.7162 134.791 74.5578C148.876 77.4436 148.656 98.6348 134.791 101.454C148.898 104.318 148.678 125.553 134.791 128.373C149.908 131.435 148.59 155.622 131.605 155.622C129.669 155.639 127.747 155.296 125.936 154.609C126.316 155.979 126.508 157.394 126.507 158.816C126.507 176.439 102.337 177.738 99.3265 162.164C96.448 176.527 75.1561 176.681 72.4754 162.164C69.6189 176.527 48.4369 176.681 45.6244 162.164C42.6141 177.188 19.4764 176.681 18.4437 159.962C18.3289 158.208 18.4845 156.447 18.9051 154.741C17.3777 155.266 15.7739 155.534 14.159 155.534C-3.41948 155.534 -4.73786 131.303 10.8191 128.285C-3.52934 125.399 -3.68315 104.054 10.8191 101.366C-3.50737 98.4806 -3.68315 77.2673 10.8191 74.4477C-3.4854 71.562 -3.66118 50.3487 10.8191 47.5291C-4.14459 44.4672 -3.63921 21.3154 13.0164 20.3021C15.6258 20.0897 18.2455 20.5603 20.619 21.6679C19.404 19.6665 18.695 17.398 18.5536 15.0594C17.4329 -3.44439 42.5042 -4.65594 45.7342 10.4555C48.6786 -3.5325 69.6629 -3.26816 72.5633 10.4555C75.4638 -3.59858 96.492 -3.35627 99.4144 10.4555C102.535 -4.63391 126.617 -3.26816 126.617 13.7597C126.685 16.7122 125.858 19.6158 124.244 22.0864C126.162 21.0287 128.297 20.4258 130.484 20.3241C148.854 19.2448 150.018 44.5112 134.791 47.6392ZM48.7006 38.1451C38.615 38.1451 38.1316 53.5649 48.8764 53.5649C58.6764 53.4768 58.7203 38.1451 48.7006 38.1451ZM48.7006 80.3733C38.615 80.3733 38.1316 95.7931 48.8764 95.7931C58.6764 95.7931 58.7203 80.3733 48.7006 80.3733ZM48.7006 122.227C38.615 122.227 38.1316 137.647 48.8764 137.647C58.6764 137.449 58.7203 122.227 48.7006 122.227ZM96.3821 38.2552C86.2965 38.2552 85.8131 53.675 96.5359 53.675C106.336 53.4767 106.402 38.1451 96.3821 38.1451V38.2552ZM96.3821 80.4835C86.2965 80.4835 85.8131 95.9033 96.5359 95.9033C106.336 95.7931 106.402 80.3733 96.3821 80.3733V80.4835ZM96.3821 122.337C86.2965 122.337 85.8131 137.757 96.5359 137.757C106.336 137.449 106.402 122.227 96.3821 122.227V122.337Z" fill="url(#paint0_linear_26_31)"/>
<defs>
<linearGradient id="paint0_linear_26_31" x1="72.66" y1="0" x2="72.66" y2="173" gradientUnits="userSpaceOnUse">
<stop offset="0.145833" stop-color="#0B2F32"/>
<stop offset="1" stop-color="#E87C77"/>
</linearGradient>
</defs>
</svg>
