<svg width="146" height="173" viewBox="0 0 146 173" fill="none" xmlns="http://www.w3.org/2000/svg">
<path fill-rule="evenodd" clip-rule="evenodd" d="M90.9944 147.325L91.4774 135.734C118.524 134.556 131.68 120.453 131.68 96.6327C131.68 67.7897 107.802 58.3235 92.1535 61.685C94.0854 56.0439 102.141 13.8902 67.5993 13.8902C34.1971 13.8902 41.3064 47.872 42.5621 54.4597C17.6022 54.4597 12.9464 76.5411 12.9464 87.0119C12.9464 100.96 25.0399 115.7 50.5794 115.7V127.62C-11.0669 127.62 -13.5397 57.5701 27.8798 43.873C24.1126 17.754 42.0405 0 67.4834 0C90.666 0 109.289 17.2324 106.72 47.8913C164.58 57.8792 156.872 150.474 90.9944 147.325ZM35.9358 79.1685L38.679 70.9001L62.2866 84.0175L63.2912 49.4175L76.1189 47.0606L79.5383 99.6078L108.246 81.2356L113.056 90.1802L81.0645 122.771L84.3294 173L59.7365 171.802L61.6684 107.142L35.9358 79.1685Z" fill="url(#paint0_linear_29_36)"/>
<defs>
<linearGradient id="paint0_linear_29_36" x1="72.8369" y1="0" x2="72.8369" y2="173" gradientUnits="userSpaceOnUse">
<stop offset="0.145833" stop-color="#0B2F32"/>
<stop offset="1" stop-color="#E87C77"/>
</linearGradient>
</defs>
</svg>
