<svg width="151" height="149" viewBox="0 0 151 149" fill="none" xmlns="http://www.w3.org/2000/svg">
<path fill-rule="evenodd" clip-rule="evenodd" d="M103.281 148.439C84.9264 148.439 58.8171 147.514 41.405 147.514C8.83946 147.514 0 128.252 0 103.761C0 79.2706 0.480213 52.183 0.480213 42.8989C0.480213 15.3846 12.6634 0.106716 42.8634 0.106716C54.0328 0.106716 96.0424 0 110.342 0C137.821 0 151 11.3472 151 44.5708C151 52.77 150.395 68.119 150.395 110.68C150.395 137.447 137.75 148.439 103.281 148.439ZM131.738 53.268L112.85 39.822L85.0687 70.4489L85.9224 43.2369L60.0265 42.81L63.0501 52.7522L63.6548 82.9878C54.2284 81.3515 42.7389 57.7144 43.4681 43.8594L18.7994 44.1973C24.811 92.9477 60.8447 116.62 83.8415 113.277L84.3928 95.2776C86.1714 94.4239 88.5902 93.1078 91.5071 91.3648L108.137 113.188L135.491 111.712L109.293 78.6481C118.088 71.4423 125.672 62.8736 131.756 53.268H131.738Z" fill="url(#paint0_linear_31_49)"/>
<defs>
<linearGradient id="paint0_linear_31_49" x1="75.5" y1="0" x2="75.5" y2="148.439" gradientUnits="userSpaceOnUse">
<stop offset="0.145833" stop-color="#0B2F32"/>
<stop offset="1" stop-color="#E87C77"/>
</linearGradient>
</defs>
</svg>
