<svg width="365" height="84" viewBox="0 0 365 84" fill="none" xmlns="http://www.w3.org/2000/svg">
<g clip-path="url(#clip0_6_26)">
<path d="M110.151 34.7324C107.271 33.2079 104.863 30.921 103.19 28.1206C101.483 25.2287 100.605 21.9207 100.654 18.5611C100.604 15.199 101.482 11.8883 103.19 8.99408C104.863 6.19371 107.271 3.9068 110.151 2.38234C113.215 0.76525 116.636 -0.0539776 120.099 2.50572e-06C122.989 -0.0419215 125.856 0.517724 128.519 1.64351C130.968 2.69258 133.134 4.30719 134.84 6.35541L129.52 11.3086C128.429 9.97114 127.05 8.89813 125.486 8.16967C123.922 7.44122 122.215 7.07617 120.49 7.10178C118.418 7.06627 116.372 7.57023 114.553 8.56435C112.841 9.51429 111.43 10.9277 110.482 12.643C109.492 14.4663 108.992 16.516 109.03 18.5913C108.993 20.6641 109.493 22.711 110.482 24.532C111.428 26.2488 112.839 27.6627 114.553 28.6107C116.372 29.6048 118.418 30.1087 120.49 30.0732C122.22 30.0975 123.932 29.7265 125.496 28.9884C127.061 28.2503 128.437 27.1646 129.52 25.8137L134.84 30.7367C133.142 32.8177 130.965 34.4551 128.497 35.5089C125.825 36.6299 122.95 37.1868 120.054 37.1449C116.603 37.1862 113.197 36.3565 110.151 34.7324Z" fill="white"/>
<path d="M138.603 0.618195H146.835V23.9892L163.932 0.618195H171.705V36.504H163.518V13.1782L146.429 36.504H138.603V0.618195Z" fill="white"/>
<path d="M186.048 34.7324C183.169 33.2096 180.763 30.9222 179.095 28.1206C177.384 25.2301 176.506 21.9212 176.559 18.5611C176.505 15.1986 177.383 11.8869 179.095 8.99407C180.763 6.19253 183.169 3.90506 186.048 2.38233C189.115 0.764318 192.538 -0.0549278 196.004 -3.46988e-06C198.894 -0.0403962 201.761 0.519188 204.424 1.64351C206.871 2.69084 209.035 4.30584 210.738 6.35541L205.432 11.3086C204.341 9.97114 202.962 8.89812 201.398 8.16967C199.834 7.44122 198.127 7.07616 196.402 7.10177C194.333 7.06723 192.29 7.57117 190.473 8.56435C188.757 9.50998 187.346 10.9244 186.402 12.643C185.409 14.4657 184.906 16.5153 184.942 18.5913C184.907 20.6647 185.41 22.7116 186.402 24.532C187.344 26.2521 188.756 27.667 190.473 28.6107C192.293 29.5934 194.336 30.0869 196.402 30.0431C198.132 30.0673 199.844 29.6963 201.409 28.9582C202.973 28.2202 204.349 27.1344 205.432 25.7835L210.753 30.7065C209.057 32.7908 206.88 34.4289 204.409 35.4787C201.737 36.5998 198.863 37.1567 195.966 37.1147C192.513 37.1678 189.102 36.3485 186.048 34.7324Z" fill="white"/>
<path d="M243.885 7.38072H232.425V36.504H224.245V7.38072H212.829V0.595581H243.885V7.38072Z" fill="white"/>
<path d="M275.317 29.8395V36.504H247.572V0.618195H274.662V7.28271H255.85V15.0781H272.48V21.539H255.85V29.832L275.317 29.8395Z" fill="white"/>
<path d="M313.281 36.504L313.236 15.0178L302.701 32.7044H299.013L288.478 15.4324V36.5417H280.682V0.618195H287.538L300.955 22.9187L314.154 0.618195H321.009L321.062 36.504H313.281Z" fill="white"/>
<path d="M335.344 34.6796C332.445 33.1514 330.021 30.8536 328.338 28.0377C326.648 25.17 325.781 21.8908 325.832 18.5611C325.774 15.2187 326.642 11.9254 328.338 9.04684C330.021 6.233 332.445 3.93769 335.344 2.41248C338.441 0.779572 341.898 -0.0498435 345.397 -1.06774e-05C348.888 -0.0538362 352.335 0.775962 355.421 2.41248C358.349 3.95552 360.794 6.28135 362.484 9.13188C364.174 11.9824 365.042 15.2462 364.992 18.5611C365.035 21.8698 364.165 25.126 362.477 27.9703C360.789 30.8147 358.35 33.1365 355.428 34.6796C352.343 36.3255 348.892 37.1632 345.397 37.1147C341.896 37.1579 338.439 36.3206 335.344 34.6796ZM351.146 28.5503C352.842 27.6043 354.239 26.2019 355.18 24.5019C356.171 22.6815 356.674 20.6345 356.64 18.5611C356.675 16.4852 356.172 14.4356 355.18 12.6128C354.245 10.9054 352.853 9.49293 351.162 8.53418C349.403 7.57477 347.433 7.07209 345.431 7.07209C343.429 7.07209 341.459 7.57477 339.701 8.53418C338.009 9.49293 336.617 10.9054 335.683 12.6128C334.69 14.4356 334.187 16.4852 334.223 18.5611C334.188 20.6345 334.691 22.6815 335.683 24.5019C336.615 26.211 338.007 27.624 339.701 28.5805C341.459 29.5399 343.429 30.0426 345.431 30.0426C347.433 30.0426 349.403 29.5399 351.162 28.5805L351.146 28.5503Z" fill="white"/>
<path d="M133.501 54.8767H122.04V84H113.853V54.8767H102.438V48.0916H133.501V54.8767Z" fill="white"/>
<path d="M164.925 77.3355V84H137.196V48.1142H164.286V54.7787H145.473V62.574H162.103V69.035H145.473V77.328L164.925 77.3355Z" fill="white"/>
<path d="M177.868 48.1142L185.288 58.9779L192.708 48.1142H202.422L190.51 65.2881L203.401 84H193.618L185.288 72.1034L177.048 84H167.484L180.276 65.6424L168.297 48.1142H177.868Z" fill="white"/>
<path d="M239.807 48.1142V84H231.529V69.2838H215.215V84H206.937V48.1142H215.215V62.2574H231.484V48.1142H239.807Z" fill="white"/>
<path d="M246.94 48.1142H255.18V71.4852L272.269 48.1142H280.05V84H271.863V60.6742L254.774 84H246.94V48.1142Z" fill="white"/>
<path d="M301.06 69.5401H295.326V84H287.086V48.1142H295.326V62.6193H301.263L310.677 48.1142H319.429L307.712 65.454L319.812 84H310.369L301.06 69.5401Z" fill="white"/>
<path d="M349.852 76.3102H333.222L330.054 84H321.558L337.519 48.1142H345.706L361.727 84H353.028L349.852 76.3102ZM347.241 70L341.567 56.2639L335.886 70H347.241Z" fill="white"/>
<path d="M15.05 26.9898V15.1987H68.342V26.9898H83.392V0.120636H0V26.9898H15.05Z" fill="white"/>
<path d="M68.342 56.0679V68.5902H15.05V56.0679H0V83.6683H83.392V56.0679H68.342Z" fill="white"/>
<path d="M60.1323 55.8492H23.2598V59.6187H60.1323V55.8492Z" fill="white"/>
<path d="M27.3985 15.1384H23.636V43.7868H27.3985V15.1384Z" fill="white"/>
</g>
<defs>
<clipPath id="clip0_6_26">
<rect width="365" height="84" fill="white"/>
</clipPath>
</defs>
</svg>
