<svg width="365" height="24" viewBox="0 0 365 24" fill="none" xmlns="http://www.w3.org/2000/svg">
<path fill-rule="evenodd" clip-rule="evenodd" d="M14.4496 1.39489C12.4447 1.91579 10.3406 1.9105 8.33838 1.37953C7.14623 1.03873 5.99141 0.577329 4.89158 0.00235885L0.997927 4.58999L1.52367 5.06039L3.44866 2.74407C4.151 3.15091 4.8994 3.47123 5.67772 3.69814C6.60351 3.92464 7.55359 4.03485 8.50628 4.02627C9.74472 4.03286 10.9791 3.88233 12.1801 3.57826C13.5732 3.18799 14.9229 2.65479 16.2079 1.98703C14.3444 3.76036 12.8651 5.23462 11.7699 6.40979C10.9342 7.31068 10.1779 8.28315 9.50978 9.31619H3.83432L3.25748 10.5075H8.73331L7.63464 12.194H2.45114L1.89017 13.3388H6.88949C5.02164 16.2066 3.70611 18.1811 2.9429 19.2624C2.03117 20.5275 1.04862 21.7394 0 22.892L0.407082 23.4412C1.67105 22.877 2.98117 22.4241 4.32277 22.0875C5.50588 21.8117 6.71671 21.6748 7.93109 21.6793C9.1049 21.6694 10.2755 21.8044 11.4166 22.0815C12.6514 22.4139 13.85 22.87 14.9945 23.4431L18.488 19.1498L18.0264 18.6993L16.3577 20.7033C15.5535 20.2801 14.7068 19.9446 13.8319 19.7023C13.0212 19.4983 12.1882 19.3985 11.3526 19.4051C8.64005 19.4051 5.76398 20.064 2.72432 21.3817C5.50975 18.7426 7.2941 16.9953 8.07736 16.1397C8.86768 15.2752 9.57543 14.3377 10.1913 13.3397H15.6996L16.2147 12.1948H10.8995C11.2782 11.6279 11.6262 11.0657 11.9436 10.5084H17.0527L17.6444 9.31701H12.6805C14.3745 6.58007 15.5374 4.71783 16.1694 3.7303C16.8013 2.74276 17.5742 1.63175 18.488 0.397261L18.0191 0.0031817C16.875 0.578235 15.68 1.04417 14.4496 1.39489ZM57.1788 1.12526C56.6049 1.55816 56.0711 2.04234 55.5838 2.57192C53.3092 0.859845 50.9475 0.00367344 48.499 0.0033969C46.8814 0.00805422 45.2862 0.384001 43.8347 1.10265C42.3239 1.8348 41.1918 2.83527 40.4383 4.10404C39.6914 5.35006 39.3005 6.77943 39.3088 8.23476C39.2921 9.45046 39.6027 10.648 40.2076 11.7003C40.8067 12.7318 41.8488 13.8097 43.334 14.9338L41.1375 17.952C41.0452 18.086 40.9428 18.2303 40.8302 18.3851C40.3405 19.0044 39.9204 19.6764 39.5776 20.3888C39.3195 20.9062 39.1754 21.4735 39.1551 22.052C39.1378 22.4418 39.2575 22.8253 39.4931 23.1351C39.5576 23.222 39.6396 23.2943 39.7337 23.3471C39.8279 23.3999 39.932 23.4321 40.0394 23.4416C40.1467 23.4511 40.2549 23.4377 40.3567 23.4022C40.4585 23.3667 40.5518 23.31 40.6303 23.2357C40.6992 23.1717 40.754 23.0939 40.7911 23.0072C40.8281 22.9206 40.8467 22.8271 40.8456 22.7327C40.8456 22.599 40.7175 22.3156 40.4614 21.8824C40.2852 21.621 40.1841 21.3158 40.1693 21.0003C40.1629 20.8936 40.1803 20.7868 40.2201 20.6878C40.26 20.5887 40.3214 20.4999 40.3998 20.4278C40.6064 20.2416 40.876 20.142 41.1532 20.1495C42.3532 20.1495 44.6096 21.248 47.9226 23.445L53.8626 18.9117C53.9038 20.2944 54.096 21.3 54.4394 21.9286C54.8385 22.6083 55.4449 23.1401 56.1683 23.445L57.1211 22.6579L59.9797 20.2036L59.5265 19.6229C58.9034 20.2212 58.4438 20.5203 58.1476 20.5203C58.0155 20.5132 57.8877 20.4707 57.7774 20.3972C57.667 20.3238 57.5781 20.2221 57.5197 20.1026C57.2746 19.7106 57.1417 18.8803 57.1213 17.6118L56.8601 6.0545C56.8498 5.59032 56.8447 5.21899 56.8448 4.94051C56.8196 4.28101 56.8921 3.62142 57.0599 2.98342C57.2108 2.53305 57.4663 2.12546 57.8052 1.79456C58.2906 1.35192 58.8432 0.990329 59.442 0.723512L59.1423 0.0040172C58.4532 0.312061 57.7956 0.687033 57.1788 1.1236V1.12526ZM50.4627 5.13838C49.6866 4.81702 48.8591 4.63946 48.0202 4.61426C47.3232 4.61448 46.638 4.79564 46.0308 5.14025C45.4366 5.45647 44.9419 5.93334 44.6023 6.51722C44.2794 7.08413 44.1181 7.52771 44.1183 7.84794C44.1157 7.93384 44.147 8.01729 44.2053 8.08004C44.2275 8.10743 44.2552 8.12983 44.2866 8.1458C44.318 8.16177 44.3523 8.17095 44.3874 8.17275C44.455 8.1605 44.5184 8.13144 44.572 8.08823C44.6255 8.04502 44.6675 7.98901 44.6942 7.9253C45.236 7.12084 45.9313 6.71855 46.7802 6.71841C47.5121 6.75305 48.2239 6.97089 48.8511 7.35224L43.7125 14.4136C41.4421 12.7855 40.307 10.915 40.3071 8.80203C40.3198 7.75984 40.6291 6.74317 41.1983 5.8726C41.7925 4.91936 42.689 4.14123 43.8878 3.53823C45.08 2.93668 46.3964 2.62678 47.73 2.63372C49.0722 2.64877 50.3926 2.97713 51.5874 3.59298L50.4627 5.13838ZM53.7542 13.2013H45.4953L52.2056 3.98209C52.471 4.15912 52.727 4.35012 52.9724 4.55432C53.0746 4.64696 53.2737 4.85839 53.5698 5.18858L53.7542 13.2013ZM53.816 15.4602L53.8778 18.0677L50.2621 20.7694L42.4542 17.3808L43.852 15.4602H53.816ZM92.1237 4.68374C91.7489 5.97921 91.5453 7.31878 91.5183 8.66783L91.5801 13.4797C91.5801 14.7071 91.3906 15.7205 91.0117 16.5199C90.6451 17.3043 90.0876 17.9829 89.391 18.4925C88.6893 19.0085 87.5194 19.6169 85.8811 20.3177C84.9799 20.7098 84.1352 21.1172 83.3472 21.5399L87.8628 17.7353C87.9547 17.6523 88.1927 17.3919 88.5768 16.9542C88.9595 16.5182 89.259 16.0148 89.46 15.4693C89.6701 14.8871 89.7741 14.2715 89.7672 13.652L89.7054 9.24421C89.7151 7.67859 89.9298 6.12109 90.344 4.61198C90.7331 3.09864 91.3749 1.66291 92.242 0.366144L91.681 0.0025614C90.802 0.499566 89.8167 0.775568 88.809 0.8071C88.097 0.776262 87.3933 0.640769 86.7202 0.404932C86.0321 0.165854 85.3127 0.0302709 84.5853 0.0025614C83.8062 0.0154093 83.0469 0.252011 82.3968 0.684522C81.6486 1.16716 81.029 1.8269 80.5924 2.60614C80.285 3.12258 80.024 3.90251 79.8095 4.9459L80.3246 5.06205C80.7954 4.15444 81.2891 3.50719 81.8058 3.1203C82.3571 2.7224 83.0231 2.51832 83.7011 2.53957C84.0779 2.55828 84.4526 2.60745 84.8216 2.68661C85.2412 2.77341 85.6676 2.82263 86.0958 2.83368C86.7301 2.82988 87.3596 2.7222 87.9596 2.51488C88.8539 2.17479 89.7147 1.75122 90.5307 1.2497C88.6988 3.17568 87.5884 4.50426 87.1996 5.23544C86.7986 6.01784 86.5982 6.88871 86.6164 7.76893C86.6164 8.08861 86.6266 8.46491 86.6471 8.89784C86.2538 8.64306 85.8338 8.43292 85.3945 8.27127C85.0425 8.13995 84.671 8.06934 84.2957 8.0624C83.6987 8.05074 83.113 8.22725 82.6206 8.56724C82.1111 8.94087 81.7295 9.46467 81.5287 10.0662L82.0437 10.275C82.5551 9.81085 83.0665 9.57876 83.5781 9.57876C84.0096 9.57483 84.4369 9.66391 84.8313 9.84002C85.2257 10.0161 85.5781 10.2752 85.8649 10.5998C86.4991 11.2807 86.8162 12.1729 86.8162 13.2766C86.8162 13.524 86.806 13.8128 86.7855 14.143C86.4113 13.869 86.0032 13.6454 85.5715 13.4778C85.2132 13.3393 84.8333 13.2659 84.4496 13.2611C83.9126 13.2556 83.3897 13.4337 82.9663 13.7661C82.5138 14.1281 82.1881 14.6261 82.0365 15.1875L82.582 15.4428C82.9294 14.9786 83.3277 14.7465 83.7769 14.7465C84.0144 14.7443 84.2499 14.7912 84.4687 14.8842C84.6875 14.9773 84.885 15.1145 85.0491 15.2874C85.2259 15.4653 85.3647 15.6778 85.457 15.9117C85.5493 16.1456 85.5931 16.396 85.5857 16.6476C85.5604 17.2982 85.3349 17.9248 84.9403 18.4407C84.0695 19.6876 82.63 21.1148 80.6218 22.7224L81.1214 23.4419C82.2164 22.9485 83.352 22.5524 84.5155 22.2582C86.5115 21.7915 88.5875 21.7942 90.5824 22.2661C91.7263 22.556 92.8419 22.9496 93.9155 23.4419L97.8847 18.893C98.9207 20.7597 99.5925 21.8917 99.9001 22.2891C100.261 22.7351 100.686 23.1237 101.162 23.4419L104.981 19.7208L104.496 19.14L103.699 19.8991C103.3 20.3015 103.003 20.5026 102.809 20.5025C102.692 20.4917 102.578 20.4565 102.475 20.3992C102.372 20.3419 102.282 20.2637 102.21 20.1696C102.006 19.9477 101.438 19.042 100.506 17.4526C99.5752 15.8631 98.7591 14.6942 98.058 13.9457C97.3442 13.1875 96.5121 12.552 95.5945 12.0643L101.712 7.68222L98.1348 3.48306L92.2412 8.18664C92.3243 6.84923 92.5645 5.52644 92.9567 4.2459C93.4282 2.88996 94.0436 1.58918 94.7922 0.366144L94.2006 0.0025614C93.2964 1.45802 92.5976 3.03293 92.1242 4.68209L92.1237 4.68374ZM98.6956 8.94638L92.241 13.5261L92.2717 12.0222L92.241 9.5574V9.08969L96.1383 5.94125L98.6956 8.94638ZM95.3934 20.7364C94.6041 20.3102 93.7683 19.9778 92.9027 19.7461C92.1544 19.5604 90.9912 19.4263 89.413 19.3437C90.4171 18.632 91.1318 17.8894 91.557 17.1157C91.9822 16.3421 92.2102 15.3725 92.241 14.2071C93.1981 14.2451 94.1232 14.5643 94.9023 15.1253C95.7126 15.6977 96.5945 16.7525 97.5479 18.2897L95.3934 20.7364ZM133.728 4.76899C133.733 4.1126 133.613 3.46139 133.375 2.85026C133.034 2.12672 132.485 1.52299 131.799 1.11738C131.097 0.694679 130.219 0.483266 129.164 0.483127C128.35 0.458087 127.541 0.608423 126.789 0.92407C126.149 1.21804 125.429 1.77762 124.63 2.60282L125.139 2.97409C125.515 2.69351 125.924 2.45972 126.356 2.27781C126.706 2.15023 127.077 2.08736 127.45 2.09219C128.091 2.08704 128.717 2.28754 129.237 2.66464C129.743 3.00904 130.123 3.51211 130.316 4.09574C130.501 4.66818 130.593 5.6197 130.593 6.95029L127.696 8.89992C126.743 9.58412 125.714 10.1552 124.63 10.6019V11.2364C125.335 11.4444 126.016 11.7243 126.664 12.0718C127.45 12.544 128.171 13.1189 128.807 13.7815C129.397 14.3504 129.873 15.0279 130.209 15.7773C130.491 16.5628 130.621 17.3951 130.594 18.2297V18.926C129.259 19.0876 127.968 19.5136 126.797 20.1793C125.765 20.7982 124.741 21.7627 123.724 23.0727L124.147 23.4439C124.819 22.8908 125.57 22.4424 126.374 22.1134C127.636 21.6591 128.966 21.4287 130.306 21.4325C131.399 21.4336 132.487 21.5846 133.539 21.8813C134.848 22.2779 136.116 22.8013 137.325 23.4439L141.321 20.1406L140.828 19.599L139.235 21.0158C138.291 20.4884 137.302 20.0473 136.28 19.698V13.2627L137.31 12.5716C138.145 12.8231 138.942 13.1879 139.679 13.656C140.341 14.1341 140.905 14.7355 141.34 15.4276C141.906 16.3032 142.341 17.257 142.633 18.259C143.258 20.3428 143.689 21.5652 143.925 21.9259C144.342 22.5481 144.894 23.0667 145.54 23.4423L149.266 20.255L148.736 19.698L147.203 21.0069C146.867 20.7366 146.575 20.4146 146.339 20.0528C146.041 19.4325 145.819 18.7778 145.678 18.1032C145.206 16.2674 144.546 14.7693 143.7 13.6091C142.784 12.386 141.634 11.3591 140.319 10.5886L145.263 7.23403L139.962 0.449112L133.728 4.76899ZM142.297 8.37393L136.279 12.4121V3.86096L137.9 2.73806L142.297 8.37393ZM135.573 19.4538C134.969 19.2693 134.352 19.1286 133.729 19.0326V5.62765L135.573 4.35044V19.4538ZM130.593 12.6117C130.017 12.0636 129.412 11.5471 128.78 11.0644C128.271 10.7073 127.731 10.3967 127.167 10.1361L130.594 7.81518L130.593 12.6117ZM172.281 4.56614C171.109 5.6314 170.155 6.91631 169.471 8.34904C168.803 9.77302 168.461 11.3305 168.473 12.9056C168.433 15.4134 169.302 17.8501 170.917 19.76C172.966 22.2148 175.758 23.4423 179.291 23.4423C181.406 23.4784 183.486 22.9047 185.286 21.7888C186.72 20.8827 188.031 19.4972 189.219 17.6324L188.844 17.0367C187.873 18.0687 186.742 18.936 185.497 19.6052C184.161 20.3132 182.676 20.6901 181.166 20.7045L180.183 20.658V10.6158H186.024L187.699 7.66065H183.55L188.85 2.26807L188.476 1.79642C187.947 1.88024 187.412 1.92675 186.877 1.9356C186.022 1.93229 185.172 1.81257 184.349 1.57969C183.261 1.25115 182.204 0.826533 181.191 0.310773L174.466 6.08229V13.1997C174.466 14.5922 174.405 15.4564 174.282 15.7923C174.159 16.1281 173.8 16.5429 173.206 17.0367C171.793 15.1389 171.086 13.1482 171.086 11.0644C171.081 9.46487 171.497 7.89254 172.292 6.50789C173.096 5.08964 174.349 3.83379 176.05 2.74034L175.735 2.26081C174.491 2.87903 173.331 3.65367 172.281 4.56614ZM179.478 20.5954C178.358 20.4662 177.269 20.1421 176.26 19.6376C175.268 19.0826 174.374 18.3679 173.611 17.522C175.105 16.2744 176.19 15.2484 176.866 14.4439C177.139 14.1581 177.346 13.8148 177.472 13.4388C177.581 12.8943 177.625 12.3387 177.604 11.7837V4.60742L179.478 3.01847V20.5969L179.478 20.5954ZM180.184 10.0384V3.14271C180.999 3.56172 181.844 3.91723 182.712 4.20609C183.58 4.45984 184.465 4.64533 185.361 4.7609L180.184 10.0384ZM225.105 0.0019411L217.656 5.01497C217.073 3.24095 216.323 1.96194 215.406 1.17794C214.49 0.393937 213.561 0.0019411 212.619 0.0019411C212.15 -0.0154316 211.683 0.0840283 211.261 0.291506C210.839 0.498984 210.474 0.808074 210.198 1.19142C209.609 1.98441 209.279 3.09646 209.207 4.52757L209.768 4.69018C209.912 3.74122 210.126 3.10682 210.411 2.787C210.529 2.63982 210.679 2.52061 210.848 2.43774C211.017 2.35486 211.203 2.31033 211.391 2.30727C212.166 2.30727 212.849 2.80754 213.441 3.80807C214.626 5.78868 215.248 8.64073 215.31 12.3642C214.954 12.0011 214.542 11.6982 214.09 11.467C213.722 11.2797 213.316 11.1791 212.903 11.1729C211.739 11.1729 210.866 11.7737 210.283 12.9755L210.736 13.3237C211.095 12.9987 211.554 12.8076 212.036 12.7822C212.749 12.7822 213.396 13.105 213.977 13.7505C214.571 14.4317 214.883 15.3163 214.848 16.222C214.848 17.9573 214.034 20.2505 212.405 23.1017L212.858 23.4425C213.648 22.9455 214.49 22.5393 215.369 22.2312C216.084 22.0127 216.828 21.9047 217.576 21.9108C218.284 21.8924 218.987 22.0311 219.636 22.3171C220.163 22.5937 220.628 22.9768 221.002 23.4425C221.984 22.9322 223.004 22.5003 224.053 22.1505C224.738 21.9381 225.45 21.8264 226.166 21.8187C226.707 21.8303 227.239 21.9597 227.726 22.1978C228.326 22.492 228.854 22.9171 229.271 23.4423C231.782 21.1522 233.695 19.1924 235.009 17.5629C236.279 16.0062 237.296 14.2568 238.023 12.3796C238.463 11.2031 238.682 9.95446 238.669 8.69728C238.656 7.31061 238.396 5.93756 237.901 4.6435C237.39 3.26079 236.542 1.71353 235.357 0.0017259L227.852 5.01477C227.023 2.93129 226.108 1.26049 225.105 0.0019411ZM222.852 2.33444C223.51 3.36738 224.074 4.45809 224.537 5.59323C224.921 6.65465 225.202 7.75128 225.375 8.86756C224.775 9.22406 224.137 9.51207 223.474 9.72623C222.935 9.87863 222.377 9.95416 221.818 9.95064C221.265 9.9552 220.715 9.87963 220.184 9.72623C219.538 9.51135 218.918 9.22328 218.336 8.86756C218.279 7.81172 218.114 6.76462 217.844 5.74297L222.852 2.33444ZM233.016 2.37385C233.731 3.57483 234.328 4.84363 234.796 6.16194C235.087 7.03838 235.272 7.94673 235.348 8.86756C234.781 9.18376 234.182 9.44042 233.562 9.63352C232.549 9.90669 231.482 9.91197 230.466 9.64886C229.826 9.45034 229.207 9.18864 228.618 8.86756C228.546 7.9083 228.478 7.24833 228.41 6.88745C228.325 6.46034 228.205 6.04109 228.051 5.63408L233.016 2.37385ZM225.405 10.5208C225.391 12.0947 225.132 13.6567 224.637 15.1497C224.002 14.7355 223.321 14.3979 222.608 14.144C221.53 13.8039 220.379 13.7744 219.285 14.059C218.707 14.2075 218.141 14.4017 217.593 14.6397C218.085 13.1831 218.351 11.6589 218.382 10.1207V9.71959C218.931 10.0209 219.511 10.2621 220.111 10.4391C220.638 10.5945 221.183 10.6752 221.732 10.6788C222.285 10.6831 222.835 10.6102 223.368 10.4623C224.061 10.2408 224.733 9.95612 225.375 9.61195C225.395 10.0129 225.405 10.3163 225.405 10.522V10.5208ZM235.364 10.1367C235.364 11.55 235.005 13.2365 234.287 15.1962C233.671 14.7674 232.999 14.4264 232.29 14.1828C231.614 13.9742 230.909 13.8724 230.201 13.881C229.786 13.8838 229.371 13.9255 228.963 14.0054C228.501 14.0959 228.047 14.2253 227.606 14.3923C227.942 13.6275 228.213 12.8356 228.417 12.0249C228.569 11.2656 228.651 10.4939 228.663 9.71959C229.21 9.97955 229.781 10.1855 230.368 10.3346C230.891 10.4675 231.428 10.5364 231.967 10.5397C232.476 10.5435 232.984 10.4901 233.481 10.3804C234.121 10.2136 234.745 9.99251 235.348 9.71959C235.358 9.90522 235.364 10.044 235.364 10.1367ZM231.497 19.9423C230.733 19.6205 229.915 19.4434 229.087 19.42C228.076 19.433 227.072 19.5986 226.11 19.9112C224.729 20.3822 223.394 20.9778 222.12 21.6907C223.234 20.5649 224.288 19.3807 225.278 18.143C225.976 17.2447 226.601 16.2901 227.144 15.2891C227.662 15.0737 228.197 14.9029 228.743 14.7785C229.226 14.6682 229.72 14.6111 230.216 14.6082C230.861 14.5981 231.503 14.7002 232.113 14.91C232.781 15.173 233.409 15.5298 233.978 15.9698C233.285 17.3745 232.454 18.7053 231.497 19.9423ZM222.394 19.7915C221.859 19.7054 221.318 19.6588 220.776 19.6521C219.754 19.6596 218.737 19.8184 217.76 20.1233C216.418 20.5701 215.12 21.1414 213.883 21.8299C214.59 20.8442 215.237 19.8166 215.822 18.7528C216.361 17.7359 216.84 16.6878 217.256 15.6139C217.878 15.3086 218.526 15.06 219.192 14.8712C219.743 14.7141 220.311 14.6309 220.883 14.6237C221.433 14.6176 221.98 14.7089 222.499 14.8934C223.168 15.1712 223.803 15.5269 224.39 15.9532C223.847 17.2932 223.179 18.578 222.394 19.7903V19.7915ZM263.386 4.9148C262.539 6.158 262.116 7.25912 262.117 8.21817L262.131 8.40379C261.19 8.7651 260.514 9.17259 260.104 9.62626C259.479 10.2841 259.132 11.1604 259.136 12.0708C259.136 12.6507 259.284 13.2209 259.567 13.7263C259.876 14.2765 260.324 14.7353 260.864 15.057C261.549 15.4563 262.303 15.7214 263.085 15.8383C263.794 15.9793 264.514 16.0545 265.236 16.0627L267.486 15.8864L266.233 18.1044C265.417 17.9557 264.59 17.8731 263.761 17.8574C262.072 17.8574 260.796 18.1952 259.935 18.8708C259.074 19.5464 258.644 20.2917 258.644 21.1067C258.644 21.8702 258.999 22.5432 259.711 23.1258C260.422 23.7083 261.439 23.9997 262.762 24C264.616 24 266.986 23.3363 269.871 22.0089C271.486 22.5108 272.905 22.989 274.128 23.4435C277.597 21.7005 280.01 20.0424 281.367 18.4693C282.724 16.8962 283.402 15.2948 283.402 13.6651C283.41 12.8079 283.184 11.965 282.749 11.2281C282.291 10.4678 281.678 9.81388 280.951 9.30954C280.122 8.73936 279.194 8.33249 278.215 8.11052C277.305 7.87028 276.366 7.75578 275.425 7.77017L272.764 7.94729L276.114 2.22286C276.369 1.79436 276.495 1.50689 276.495 1.36046C276.495 1.3149 276.486 1.26976 276.469 1.22767C276.451 1.18559 276.426 1.14739 276.394 1.1153C276.361 1.08009 276.322 1.05228 276.278 1.03375C276.233 1.01522 276.186 1.00639 276.138 1.00786C276.088 1.00759 276.038 1.01776 275.991 1.03774C275.945 1.05772 275.903 1.08708 275.868 1.12401C275.715 1.31276 275.583 1.51731 275.473 1.7342L274.958 2.64555L268.025 0.311596C265.78 2.13719 264.233 3.67201 263.386 4.9148ZM271.936 8.00206C269.529 8.20808 267.983 8.31109 267.296 8.31109C266.252 8.31109 265.471 8.079 264.952 7.61483C264.7 7.39415 264.5 7.12016 264.366 6.81253C264.232 6.5049 264.168 6.17123 264.177 5.83547C264.179 5.46854 264.261 5.10654 264.418 4.77504C264.574 4.44354 264.801 4.15062 265.082 3.91696C265.686 3.37023 266.468 3.09687 267.428 3.09687C268.236 3.1175 269.037 3.25533 269.805 3.50609C271.098 3.9452 272.354 4.48469 273.563 5.11971L271.936 8.00206ZM269.126 12.9798C268.034 13.1205 266.936 13.1991 265.836 13.2152C264.002 13.2152 262.706 12.9471 261.948 12.4107C261.684 12.2421 261.467 12.009 261.316 11.7331C261.165 11.4571 261.087 11.1474 261.087 10.8325C261.087 10.1312 261.456 9.54357 262.193 9.06958C262.438 9.72165 262.9 10.2683 263.499 10.6168C264.084 10.947 265.073 11.1121 266.466 11.1119C267.763 11.1084 269.059 11.0122 270.343 10.824L269.126 12.9798ZM271.169 10.762C272.437 10.5921 273.714 10.4969 274.993 10.4766C276.116 10.4543 277.231 10.6789 278.26 11.1345C279.12 11.4994 279.852 12.1137 280.364 12.8991C280.8 13.5689 281.038 14.3502 281.05 15.1514C281.052 16.3123 280.668 17.4404 279.958 18.3552C279.228 19.3252 278.192 20.2281 276.849 21.0639L273.724 20.2343C275.935 19.2164 277.376 18.3665 278.046 17.6849C278.716 17.0032 279.052 16.3008 279.053 15.5776C279.052 15.1673 278.959 14.7625 278.781 14.3936C278.602 14.0246 278.343 13.701 278.023 13.4469C277.337 12.8523 276.343 12.5551 275.042 12.5551C274.09 12.5551 272.392 12.6767 269.948 12.9199L271.169 10.762ZM268.304 15.8228C269.004 15.8228 270.472 15.7031 272.706 15.4637C273.379 15.3769 274.055 15.3289 274.733 15.3202C275.139 15.3057 275.535 15.4501 275.837 15.7232C275.969 15.8332 276.076 15.9704 276.151 16.1255C276.225 16.2806 276.266 16.45 276.27 16.6223C276.272 17.687 275.033 18.788 272.554 19.9253C270.992 19.3805 269.906 19.0172 269.297 18.8354C268.687 18.6535 267.899 18.4557 266.934 18.242L268.304 15.8228ZM262.855 23.3039C261.841 23.3039 261.068 23.1182 260.535 22.7468C260.378 22.6531 260.248 22.5195 260.159 22.3592C260.069 22.199 260.024 22.018 260.026 21.8342C260.029 21.6515 260.076 21.4723 260.165 21.3129C260.254 21.1535 260.381 21.019 260.535 20.9217C261.025 20.5504 261.691 20.3648 262.533 20.3648C264.163 20.3616 266.252 20.7895 268.8 21.6484C266.394 22.7526 264.412 23.3041 262.855 23.3039ZM315.378 4.68291C315.003 5.97835 314.799 7.31794 314.772 8.667L314.834 13.4788C314.834 14.7063 314.644 15.7197 314.265 16.519C313.899 17.3037 313.341 17.9823 312.644 18.4917C311.941 19.0077 310.771 19.6161 309.133 20.3169C308.233 20.709 307.388 21.1164 306.599 21.5391L311.115 17.7344C311.208 17.6515 311.445 17.3916 311.83 16.9533C312.212 16.5173 312.511 16.0139 312.712 15.4685C312.922 14.8864 313.026 14.2707 313.019 13.6512L312.957 9.24339C312.967 7.6778 313.182 6.12037 313.596 4.61114C313.985 3.09803 314.627 1.6624 315.493 0.365322L314.933 0.0017259C314.054 0.498699 313.068 0.7747 312.061 0.806264C311.349 0.775269 310.645 0.639781 309.972 0.404096C309.284 0.165011 308.565 0.029427 307.838 0.0017259C307.059 0.0144042 306.299 0.251025 305.65 0.683686C304.901 1.16562 304.281 1.82553 303.845 2.60532C303.536 3.12176 303.276 3.90182 303.06 4.94508L303.575 5.06123C304.047 4.15361 304.541 3.50636 305.056 3.11948C305.608 2.72173 306.274 2.51766 306.952 2.53874C307.329 2.55732 307.703 2.60649 308.072 2.68579C308.492 2.77254 308.919 2.82174 309.348 2.83284C309.982 2.82946 310.612 2.722 311.212 2.51468C312.106 2.17426 312.967 1.7507 313.783 1.2495C311.952 3.17548 310.841 4.50406 310.452 5.23524C310.051 6.01758 309.85 6.8885 309.869 7.76872C309.869 8.08841 309.879 8.46471 309.9 8.89764C309.506 8.64305 309.086 8.43293 308.647 8.27106C308.295 8.13986 307.924 8.06925 307.549 8.0622C306.952 8.05012 306.366 8.22667 305.874 8.56703C305.364 8.94036 304.983 9.46426 304.782 10.066L305.297 10.2748C305.808 9.81064 306.32 9.57855 306.832 9.57855C307.263 9.57476 307.69 9.66393 308.084 9.84005C308.478 10.0162 308.83 10.2752 309.117 10.5996C309.751 11.2805 310.069 12.1727 310.069 13.2764C310.069 13.5238 310.058 13.8126 310.038 14.1428C309.664 13.8688 309.256 13.6452 308.824 13.4776C308.466 13.3391 308.086 13.2657 307.702 13.2609C307.165 13.2558 306.642 13.4338 306.218 13.7659C305.767 14.1284 305.441 14.6262 305.289 15.1873L305.835 15.4426C306.181 14.9784 306.581 14.7463 307.03 14.7463C307.268 14.7442 307.503 14.7911 307.722 14.8841C307.941 14.9771 308.139 15.1143 308.303 15.2872C308.48 15.4654 308.618 15.6779 308.71 15.9118C308.802 16.1456 308.846 16.3959 308.839 16.6474C308.814 17.298 308.588 17.9246 308.194 18.4404C307.322 19.6874 305.883 21.1146 303.876 22.7222L304.374 23.4417C305.47 22.9483 306.606 22.5522 307.77 22.258C309.766 21.7913 311.842 21.794 313.837 22.2659C314.981 22.556 316.096 22.9495 317.17 23.4417L321.138 18.8928C322.174 20.7595 322.846 21.8915 323.155 22.2889C323.515 22.7351 323.94 23.1238 324.415 23.4417L328.235 19.7206L327.751 19.1398L326.951 19.8979C326.552 20.3003 326.255 20.5014 326.061 20.5012C325.944 20.4902 325.83 20.4549 325.727 20.3976C325.624 20.3404 325.534 20.2623 325.462 20.1684C325.258 19.9464 324.69 19.0407 323.758 17.4513C322.826 15.8619 322.011 14.6929 321.311 13.9445C320.597 13.1861 319.765 12.5505 318.847 12.0631L324.963 7.68098L321.387 3.48182L315.493 8.1854C315.576 6.84791 315.817 5.5251 316.21 4.24466C316.681 2.88865 317.297 1.58785 318.045 0.364904L317.454 0.0013208C316.548 1.45635 315.849 3.03272 315.378 4.68291ZM321.949 8.94554L315.493 13.5253L315.524 12.0214L315.493 9.55657V9.08969L319.391 5.94043L321.949 8.94554ZM318.647 20.7356C317.858 20.3095 317.022 19.9771 316.156 19.7452C315.406 19.5595 314.243 19.4254 312.666 19.3429C313.67 18.6312 314.384 17.8885 314.809 17.1149C315.234 16.3413 315.462 15.3717 315.493 14.2062C316.45 14.245 317.376 14.565 318.155 15.1267C318.964 15.6991 319.846 16.7539 320.8 18.2911L318.647 20.7356ZM362.031 0.96182C361.232 1.50575 360.593 2.25673 360.181 3.13566C359.767 4.01769 359.56 5.20136 359.559 6.68667C359.559 8.27514 359.836 10.6682 360.389 13.8659C360.851 16.5788 361.082 18.4199 361.082 19.3893C361.097 19.7469 361.041 20.104 360.918 20.4399C360.796 20.7758 360.608 21.084 360.367 21.3466C360.145 21.5882 359.875 21.7799 359.575 21.9092C359.275 22.0385 358.951 22.1025 358.624 22.097C358.121 22.0914 357.627 21.959 357.188 21.7117C356.712 21.4546 355.875 20.8017 354.677 19.7529C355.853 19.5055 356.702 19.1445 357.225 18.6698C357.932 18.02 358.285 17.1074 358.284 15.9321C358.284 15.3032 358.136 13.9881 357.839 11.9868C357.592 10.3984 357.459 9.45977 357.439 9.17079C357.378 8.53142 357.347 7.78359 357.347 6.92727C357.347 5.29774 357.554 4.03414 357.969 3.13648C358.384 2.23882 359.129 1.34663 360.206 0.459898L359.829 0.00359945C359.353 0.242226 358.853 0.428978 358.338 0.56069C357.867 0.659439 357.388 0.706111 356.908 0.699864C356.043 0.679695 355.182 0.570871 354.339 0.375069C353.88 0.26171 353.41 0.199112 352.938 0.188397C351.597 0.188397 350.526 0.643173 349.724 1.55272C349.161 2.20384 348.792 3.10261 348.618 4.24902L349.209 4.36496C349.312 3.67409 349.551 3.16842 349.93 2.8486C350.309 2.52878 350.857 2.36907 351.574 2.36907C352.036 2.38724 352.496 2.44413 352.948 2.53915C353.405 2.63518 353.87 2.69215 354.337 2.70944C354.707 2.71238 355.075 2.65759 355.429 2.54703C355.766 2.43877 356.544 2.0906 357.761 1.50253C356.512 2.89506 355.665 4.13031 355.219 5.20828C354.772 6.28624 354.534 7.66585 354.504 9.34709C354.298 9.33693 354.125 9.33153 353.98 9.33153C353.081 9.31116 352.194 9.55513 351.43 10.0336C350.64 10.5698 349.987 11.2861 349.524 12.1243L349.978 12.5034C350.431 12.1465 350.923 11.8429 351.444 11.5983C351.781 11.454 352.143 11.3777 352.509 11.3739C352.904 11.3648 353.296 11.4531 353.649 11.6311C354.002 11.8091 354.307 12.0714 354.537 12.3951C355.241 13.3339 355.594 14.7057 355.595 16.5107C355.595 17.4081 355.39 18.0631 354.98 18.4757C354.57 18.8988 353.801 19.1412 352.674 19.2029C351.547 19.2645 350.69 19.4345 350.101 19.7127C349.435 20.0575 348.862 20.5611 348.432 21.1797C347.969 21.8617 347.64 22.6273 347.464 23.4346L348.057 23.6744C348.227 23.1005 348.57 22.5945 349.04 22.2277C349.511 21.8928 350.077 21.7216 350.653 21.7403C351.288 21.7403 352.352 21.9724 353.846 22.4366C355.731 23.0349 357.078 23.334 357.886 23.334C358.655 23.334 359.51 23.0814 360.451 22.5761C361.443 22.0214 362.25 21.1845 362.771 20.1702C363.377 19.0722 363.679 17.7033 363.679 16.0636C363.68 15.4356 363.644 14.8081 363.57 14.1845C363.498 13.5813 363.268 12.1403 362.88 9.86146C362.398 7.03615 362.157 5.06662 362.157 3.95284C362.157 3.05602 362.362 2.34198 362.771 1.81074C363.18 1.2795 363.923 0.854171 365 0.534764L364.732 0.000903053C363.543 0.217713 362.643 0.537466 362.031 0.960161V0.96182Z" fill="white"/>
</svg>
