<svg width="363" height="25" viewBox="0 0 363 25" fill="none" xmlns="http://www.w3.org/2000/svg">
<path d="M13.1477 25C10.6731 25 8.42979 24.4705 6.41774 23.4116C4.42882 22.3296 2.85618 20.8448 1.69983 18.9572C0.566611 17.0465 0 14.8941 0 12.5C0 10.1059 0.566611 7.96501 1.69983 6.07735C2.85618 4.16667 4.42882 2.68186 6.41774 1.62293C8.42979 0.540976 10.6847 0 13.1824 0C15.2869 0 17.1834 0.368324 18.8716 1.10497C20.583 1.84162 22.0169 2.90055 23.1733 4.28177L19.5654 7.59668C17.9234 5.70902 15.8882 4.76519 13.4599 4.76519C11.9567 4.76519 10.6153 5.09899 9.43581 5.76657C8.25634 6.41114 7.33126 7.32044 6.66057 8.49447C6.01302 9.66851 5.68924 11.0037 5.68924 12.5C5.68924 13.9963 6.01302 15.3315 6.66057 16.5055C7.33126 17.6796 8.25634 18.6004 9.43581 19.268C10.6153 19.9125 11.9567 20.2348 13.4599 20.2348C15.8882 20.2348 17.9234 19.2795 19.5654 17.3688L23.1733 20.6837C22.0169 22.0879 20.583 23.1584 18.8716 23.895C17.1602 24.6317 15.2523 25 13.1477 25Z" fill="white"/>
<path d="M26.8361 0.414363H32.4212V16.1602L44.0079 0.414363H49.2808V24.5856H43.7303V8.87431L32.1437 24.5856H26.8361V0.414363Z" fill="white"/>
<path d="M66.8096 25C64.335 25 62.0916 24.4705 60.0796 23.4116C58.0907 22.3296 56.518 20.8448 55.3617 18.9572C54.2285 17.0465 53.6619 14.8941 53.6619 12.5C53.6619 10.1059 54.2285 7.96501 55.3617 6.07735C56.518 4.16667 58.0907 2.68186 60.0796 1.62293C62.0916 0.540976 64.3465 0 66.8442 0C68.9488 0 70.8452 0.368324 72.5335 1.10497C74.2449 1.84162 75.6788 2.90055 76.8351 4.28177L73.2273 7.59668C71.5853 5.70902 69.5501 4.76519 67.1218 4.76519C65.6185 4.76519 64.2771 5.09899 63.0977 5.76657C61.9182 6.41114 60.9931 7.32044 60.3224 8.49447C59.6749 9.66851 59.3511 11.0037 59.3511 12.5C59.3511 13.9963 59.6749 15.3315 60.3224 16.5055C60.9931 17.6796 61.9182 18.6004 63.0977 19.268C64.2771 19.9125 65.6185 20.2348 67.1218 20.2348C69.5501 20.2348 71.5853 19.2795 73.2273 17.3688L76.8351 20.6837C75.6788 22.0879 74.2449 23.1584 72.5335 23.895C70.8221 24.6317 68.9141 25 66.8096 25Z" fill="white"/>
<path d="M98.8202 4.97237H91.0495V24.5856H85.4991V4.97237H77.7631V0.414363H98.8202V4.97237Z" fill="white"/>
<path d="M121.151 20.0967V24.5856H102.349V0.414363H120.7V4.90331H107.934V10.1519H119.208V14.5028H107.934V20.0967H121.151Z" fill="white"/>
<path d="M147.788 24.5856L147.754 10.1174L140.607 22.0304H138.11L130.963 10.3936V24.5856H125.69V0.414363H130.339L139.428 15.4351L148.378 0.414363H153.027L153.061 24.5856H147.788Z" fill="white"/>
<path d="M170.68 25C168.159 25 165.881 24.459 163.846 23.3771C161.834 22.2951 160.25 20.8103 159.094 18.9226C157.96 17.012 157.394 14.8711 157.394 12.5C157.394 10.1289 157.96 7.99954 159.094 6.11188C160.25 4.2012 161.834 2.70488 163.846 1.62293C165.881 0.540976 168.159 0 170.68 0C173.201 0 175.467 0.540976 177.48 1.62293C179.492 2.70488 181.076 4.2012 182.232 6.11188C183.389 7.99954 183.967 10.1289 183.967 12.5C183.967 14.8711 183.389 17.012 182.232 18.9226C181.076 20.8103 179.492 22.2951 177.48 23.3771C175.467 24.459 173.201 25 170.68 25ZM170.68 20.2348C172.114 20.2348 173.409 19.9125 174.566 19.268C175.722 18.6004 176.624 17.6796 177.271 16.5055C177.942 15.3315 178.277 13.9963 178.277 12.5C178.277 11.0037 177.942 9.66851 177.271 8.49447C176.624 7.32044 175.722 6.41114 174.566 5.76657C173.409 5.09899 172.114 4.76519 170.68 4.76519C169.246 4.76519 167.951 5.09899 166.795 5.76657C165.639 6.41114 164.725 7.32044 164.054 8.49447C163.407 9.66851 163.083 11.0037 163.083 12.5C163.083 13.9963 163.407 15.3315 164.054 16.5055C164.725 17.6796 165.639 18.6004 166.795 19.268C167.951 19.9125 169.246 20.2348 170.68 20.2348Z" fill="white"/>
<path d="M206.517 4.97237H198.746V24.5856H193.195V4.97237H185.459V0.414363H206.517V4.97237Z" fill="white"/>
<path d="M228.848 20.0967V24.5856H210.045V0.414363H228.397V4.90331H215.63V10.1519H226.905V14.5028H215.63V20.0967H228.848Z" fill="white"/>
<path d="M237.521 0.414363L242.551 7.73481L247.581 0.414363H254.172L246.089 11.982L254.831 24.5856H248.205L242.551 16.5746L236.966 24.5856H230.479L239.151 12.2238L231.034 0.414363H237.521Z" fill="white"/>
<path d="M279.677 0.414363V24.5856H274.057V14.6754H263.026V24.5856H257.406V0.414363H263.026V9.94475H274.057V0.414363H279.677Z" fill="white"/>
<path d="M285.761 0.414363H291.347V16.1602L302.933 0.414363H308.206V24.5856H302.656V8.87431L291.069 24.5856H285.761V0.414363Z" fill="white"/>
<path d="M323.653 14.8481H319.768V24.5856H314.183V0.414363H319.768V10.1865H323.792L330.175 0.414363H336.107L328.163 12.0856L336.35 24.5856H329.967L323.653 14.8481Z" fill="white"/>
<path d="M354.952 19.4061H343.677L341.527 24.5856H335.768L346.591 0.414363H352.142L363 24.5856H357.103L354.952 19.4061ZM353.183 15.1588L349.332 5.9047L345.481 15.1588H353.183Z" fill="white"/>
</svg>
